HIERARCHY
ROOT SpineBase
{
  OFFSET 0.000000 0.000000 0.000000
  CHANNELS 6 Xposition Yposition Zposition Zrotation Xrotation Yrotation
  JOINT SpineMid
  {
    OFFSET -0.000000 27.996209 0.000000
    CHANNELS 3 Zrotation Xrotation Yrotation
    JOINT SpineShoulder
    {
      OFFSET -0.116118 20.782848 -0.767958
      CHANNELS 3 Zrotation Xrotation Yrotation
      JOINT Neck
      {
        OFFSET -0.053672 6.831676 -0.550846
        CHANNELS 3 Zrotation Xrotation Yrotation
        JOINT Head
        {
          OFFSET 1.258610 13.957131 -1.944467
          CHANNELS 3 Zrotation Xrotation Yrotation
          End Site
          {
            OFFSET 0 0 0
          }
        }
      }
      JOINT ShoulderLeft
      {
        OFFSET -14.683337 -5.681124 1.389735
        CHANNELS 3 Zrotation Xrotation Yrotation
        JOINT ElbowLeft
        {
          OFFSET -1.316088 -23.821576 2.560198
          CHANNELS 3 Zrotation Xrotation Yrotation
          JOINT WristLeft
          {
            OFFSET 20.997390 -13.335468 -10.603354
            CHANNELS 3 Zrotation Xrotation Yrotation
            JOINT HandLeft
            {
              OFFSET 8.970121 -13.016596 -4.116760
              CHANNELS 3 Zrotation Xrotation Yrotation
              JOINT HandTipLeft
              {
                OFFSET 4.539011 -5.675134 -2.297509
                CHANNELS 3 Zrotation Xrotation Yrotation
                End Site
                {
                  OFFSET 0 0 0
                }
              }
              JOINT ThumbLeft
              {
                OFFSET -3.724162 -4.358810 0.926132
                CHANNELS 3 Zrotation Xrotation Yrotation
                End Site
                {
                  OFFSET 0 0 0
                }
              }
            }
          }
        }
      }
      JOINT ShoulderRight
      {
        OFFSET 11.428485 1.266281 -1.714947
        CHANNELS 3 Zrotation Xrotation Yrotation
        JOINT ElbowRight
        {
          OFFSET -8.546421 15.965917 -9.408971
          CHANNELS 3 Zrotation Xrotation Yrotation
          JOINT WristRight
          {
            OFFSET 4.565001 16.032215 6.793554
            CHANNELS 3 Zrotation Xrotation Yrotation
            JOINT HandRight
            {
              OFFSET 1.492918 5.355132 2.641389
              CHANNELS 3 Zrotation Xrotation Yrotation
              JOINT HandTipRight
              {
                OFFSET 1.320124 -7.134397 -2.023873
                CHANNELS 3 Zrotation Xrotation Yrotation
                End Site
                {
                  OFFSET 0 0 0
                }
              }
              JOINT ThumbRight
              {
                OFFSET 2.845458 -1.003023 -3.284011
                CHANNELS 3 Zrotation Xrotation Yrotation
                End Site
                {
                  OFFSET 0 0 0
                }
              }
            }
          }
        }
      }
    }
  }
  JOINT HipLeft
  {
    OFFSET -5.877674 -0.538253 -2.025840
    CHANNELS 3 Zrotation Xrotation Yrotation
    JOINT KneeLeft
    {
      OFFSET 10.249475 -43.810351 9.985123
      CHANNELS 3 Zrotation Xrotation Yrotation
      JOINT AnkleLeft
      {
        OFFSET 4.441525 -28.830636 7.365904
        CHANNELS 3 Zrotation Xrotation Yrotation
        JOINT FootLeft
        {
          OFFSET -0.312174 -3.491149 -13.644470
          CHANNELS 3 Zrotation Xrotation Yrotation
          End Site
          {
            OFFSET 0 0 0
          }
        }
      }
    }
  }
  JOINT HipRight
  {
    OFFSET 6.370328 1.682459 -4.799549
    CHANNELS 3 Zrotation Xrotation Yrotation
    JOINT KneeRight
    {
      OFFSET 4.064740 -38.979661 6.693265
      CHANNELS 3 Zrotation Xrotation Yrotation
      JOINT AnkleRight
      {
        OFFSET 12.769899 -29.908596 8.184839
        CHANNELS 3 Zrotation Xrotation Yrotation
        JOINT FootRight
        {
          OFFSET -5.469833 -7.041221 -1.712163
          CHANNELS 3 Zrotation Xrotation Yrotation
          End Site
          {
            OFFSET 0 0 0
          }
        }
      }
    }
  }
}
MOTION
Frames: 9
Frame Time: 0.033333
-27.440581 82.425044 342.114334 0.000000 0.000000 12.760098 -0.000000 0.000000 -12.760098 -0.000000 0.000000 0.000000 -0.000000 0.000000 0.000000 0.000000 0.000000 0.000000 -0.000000 0.000000 0.000000 -0.000000 0.000000 0.000000 -0.000000 0.000000 0.000000 -0.000000 0.000000 0.000000 0.000000 0.000000 0.000000 0.000000 0.000000 0.000000 -0.000000 0.000000 0.000000 -0.000000 0.000000 0.000000 -0.000000 0.000000 0.000000 -0.000000 0.000000 0.000000 0.000000 0.000000 0.000000 0.000000 0.000000 0.000000 -0.000000 0.000000 -12.760098 -0.000000 0.000000 0.000000 -0.000000 0.000000 0.000000 0.000000 0.000000 0.000000 -0.000000 0.000000 -12.760098 -0.000000 0.000000 0.000000 -0.000000 0.000000 0.000000 0.000000 0.000000 0.000000
-27.427616 82.447407 342.054943 0.078300 0.050705 12.548216 -0.087446 -0.032482 -12.548276 -0.000000 0.000000 0.000000 -0.000000 0.000000 0.000000 0.000000 0.000000 0.000000 -0.000000 0.000000 0.000000 -0.000000 0.000000 0.000000 -1.678101 4.289387 3.543605 4.349313 -8.024823 -7.109290 0.000000 0.000000 0.000000 0.000000 0.000000 0.000000 -0.000000 0.000000 0.000000 -3.899253 -1.848781 2.110185 0.162393 -0.064555 0.194426 3.810107 1.751218 -2.430358 0.000000 0.000000 0.000000 0.000000 0.000000 0.000000 -0.087446 -0.032482 -12.548276 -0.378083 -0.972973 -0.249288 1.137153 -5.040219 -2.678189 0.000000 0.000000 0.000000 -0.087446 -0.032482 -12.548276 -0.000000 0.000000 0.000000 -4.167781 -3.978611 3.882548 0.000000 0.000000 0.000000
-27.415563 82.457717 342.000649 0.151083 0.093262 12.372532 -0.167558 -0.058723 -12.372741 -0.000000 0.000000 0.000000 -0.000000 0.000000 0.000000 0.000000 0.000000 0.000000 -0.125961 1.342703 -0.086350 -0.392516 -2.101897 -0.716097 -3.856598 10.406990 9.224865 7.400934 -17.107682 -13.750343 0.000000 0.000000 0.000000 0.000000 0.000000 0.000000 -0.000000 0.000000 0.000000 -6.119887 -4.182371 3.563219 0.240228 -0.095269 0.302811 6.162343 3.832174 -4.309097 0.000000 0.000000 0.000000 0.000000 0.000000 0.000000 0.288806 0.856536 -12.086566 -0.966380 -2.829273 -0.776960 1.926131 -10.058515 -5.178776 0.000000 0.000000 0.000000 -0.167558 -0.058723 -12.372741 -0.000000 0.000000 0.000000 -6.866055 -6.881276 6.398770 0.000000 0.000000 0.000000
-27.404420 82.455975 341.951453 0.218299 0.127634 12.233089 -0.240386 -0.078480 -12.233496 -0.000000 0.000000 0.000000 -0.000000 0.000000 0.000000 0.000000 0.000000 0.000000 -0.191573 1.861620 -0.120535 -0.581193 -2.947822 -1.015791 -7.535507 16.913685 15.983225 9.064856 -27.079282 -20.351973 0.000000 0.000000 0.000000 0.000000 0.000000 0.000000 -0.000000 0.000000 0.000000 -6.960101 -6.995574 4.558120 0.260192 -0.089159 0.338560 7.318552 6.411626 -5.753287 0.000000 0.000000 0.000000 0.000000 0.000000 0.000000 0.407207 1.252776 -11.822806 -1.351663 -4.035474 -1.115624 2.376483 -14.236473 -7.122598 0.000000 0.000000 0.000000 -0.240386 -0.078480 -12.233496 -0.000000 0.000000 0.000000 -8.564907 -8.880453 8.004628 0.000000 0.000000 0.000000
-27.394189 82.442180 341.907354 0.279902 0.153796 12.129977 -0.305970 -0.091544 -12.130597 -0.000000 0.000000 0.000000 -0.000000 0.000000 0.000000 0.000000 0.000000 0.000000 -0.259809 2.286905 -0.149402 -0.763518 -3.665188 -1.273762 -12.403430 23.277877 23.900140 9.061306 -37.014279 -27.064228 0.000000 0.000000 0.000000 0.000000 0.000000 0.000000 -0.000000 0.000000 0.000000 -6.537723 -10.375169 5.254543 0.233741 -0.048501 0.306447 7.382962 9.665465 -6.803163 0.000000 0.000000 0.000000 0.000000 0.000000 0.000000 0.508787 1.625144 -11.607977 -1.667605 -5.100970 -1.414881 2.603670 -16.814927 -8.143990 0.000000 0.000000 0.000000 -0.305970 -0.091544 -12.130597 -0.000000 0.000000 0.000000 -9.533538 -10.129934 8.960033 0.000000 0.000000 0.000000
-27.384869 82.416333 341.868353 0.335855 0.171732 12.063340 -0.364329 -0.097746 -12.064154 -0.000000 0.000000 0.000000 0.782645 -0.475695 0.155189 0.000000 0.000000 0.000000 -0.331320 2.622616 -0.173342 -0.938442 -4.258220 -1.488156 -17.383926 28.259381 31.497866 7.390570 -45.168333 -33.423963 0.000000 0.000000 0.000000 0.000000 0.000000 0.000000 -0.000000 0.000000 0.000000 -4.807837 -14.469375 5.808067 0.162631 0.018750 0.203445 6.307225 13.799812 -7.404990 0.000000 0.000000 0.000000 0.000000 0.000000 0.000000 0.593891 1.971936 -11.442326 -1.911881 -6.025592 -1.670944 2.733636 -17.308472 -8.001955 0.000000 0.000000 0.000000 -0.364329 -0.097746 -12.064154 -0.000000 0.000000 0.000000 -9.910678 -10.727122 9.400099 0.000000 0.000000 0.000000
-27.364894 82.354805 341.837886 0.391314 0.177575 12.039107 -0.419746 -0.092046 -12.040051 -0.000000 0.000000 0.000000 0.992632 -0.531067 0.190811 0.000000 0.000000 0.000000 -0.419228 2.868536 -0.193554 -1.323748 -4.841987 -1.677023 -17.372619 29.420894 32.711944 5.977710 -46.066747 -34.623785 0.000000 0.000000 0.000000 0.000000 0.000000 0.000000 -0.000000 0.000000 0.000000 -0.992617 -19.307449 6.229954 0.020819 0.086708 -0.008068 3.195319 18.985824 -6.926324 0.000000 0.000000 0.000000 0.000000 0.000000 0.000000 0.691378 2.463700 -11.294601 -2.099871 -7.190994 -1.964183 2.700094 -15.030137 -5.335399 0.000000 0.000000 0.000000 -0.319648 0.742250 -11.966331 0.075059 -0.836920 -0.073740 -7.271846 -9.980971 8.647789 0.000000 0.000000 0.000000
-27.356320 82.298786 341.810024 0.422852 0.180789 12.037846 -0.451259 -0.088621 -12.038863 -0.000000 0.000000 0.000000 1.160276 -0.564113 0.218284 0.000000 0.000000 0.000000 -0.533601 2.924310 -0.205836 -1.330320 -4.993953 -1.730648 -16.927706 30.789145 33.491528 4.896293 -46.703026 -34.978249 0.000000 0.000000 0.000000 0.000000 0.000000 0.000000 -0.000000 0.000000 0.000000 5.227125 -24.672102 6.771643 -0.193396 0.135347 -0.350144 -2.589217 24.907182 -4.665422 0.000000 0.000000 0.000000 0.000000 0.000000 0.000000 0.787869 2.865763 -11.192293 -2.188690 -8.086845 -2.173734 2.322172 -10.612535 -1.506233 0.000000 0.000000 0.000000 -0.206643 0.755370 -11.937911 -0.064759 -0.876334 -0.102871 -13.959022 -8.674237 8.435474 0.000000 0.000000 0.000000
-27.358410 82.263181 341.789536 0.460704 0.166248 12.073266 -0.485287 -0.066205 -12.074215 -0.000000 0.000000 0.000000 1.205238 -0.483701 0.216701 0.000000 0.000000 0.000000 -0.567296 3.070111 -0.215987 -1.200969 -5.148051 -1.804584 -10.271763 26.047354 25.039764 4.642772 -38.316084 -28.782868 0.000000 0.000000 0.000000 0.000000 0.000000 0.000000 -0.000000 0.000000 0.000000 12.243996 -31.701818 8.868724 -0.391869 0.077472 -0.706983 -8.958133 32.506550 -1.946316 0.000000 0.000000 0.000000 0.000000 0.000000 0.000000 0.808059 3.121796 -11.174696 -2.117106 -8.525760 -2.240614 1.397248 -4.992855 2.837983 0.000000 0.000000 0.000000 -0.253213 0.863198 -11.970261 0.785314 -0.975237 0.124524 -15.823833 -7.082655 7.408856 0.000000 0.000000 0.000000
